<svg enable-background="new 0 0 1076.2 168.1" viewBox="0 0 1076.2 168.1" xmlns="http://www.w3.org/2000/svg"><g fill="#39a042"><path d="m366.2 0h9.2c3.5 0 5.7 2.7 6.5 8.1 0 3.5-2.6 5.8-7.7 6.9h-5.8c-9.3 0-15.5 5.1-18.5 15.4l-.3 8v5.4h16.5l6.1-.3c3.3 0 5.4 2.4 6.6 7.3v1.2c0 3.2-2.3 5.4-7 6.6h-22.2v76.1l.3 4.3c0 3.5-2.5 5.8-7.6 6.9-3.5 0-6.1-2.2-7.7-6.5l.4-4.7v-76.1h-20.1c-3.5 0-5.7-2.7-6.5-8.1 0-2.6 2.1-4.9 6.2-6.9l7.6.3h12.4v-6.9c0-17.2 7.5-29 22.6-35.3z"/><path d="m437.1 42c19.6 0 35.2 9.6 46.6 28.8 3.5 7.8 5.3 15.9 5.3 24.3v44c0 3.7-2.4 6-7.2 6.8h-.4c-3.2 0-5.7-1.9-7.2-5.7v-.4l.4-9.4v-.4c-11.2 10.6-23.2 15.9-36 15.9h-2.9c-17.6 0-32.3-8.8-44.1-26.5-4.3-8.5-6.4-17.1-6.4-25.8 0-19.3 9.5-34.6 28.4-45.9 8-3.8 15.8-5.7 23.5-5.7zm-37.2 51.2v1.1c0 15.1 7.6 26.5 22.7 34.1 4.8 1.8 9.1 2.6 12.9 2.6h2.9c12.6 0 23-6.3 31.2-18.9 3-6 4.5-11.6 4.5-17.1v-1.5c0-14.6-7.2-25.7-21.5-33.4-5-2.2-10.2-3.4-15.5-3.4h-.4c-15.3 0-26.8 8-34.5 23.9-1.6 5.1-2.3 9.2-2.3 12.6z"/><path d="m520.2 41.2c4.9 1.2 7.3 3.4 7.3 6.5v8.4c11.2-9.9 23.1-14.9 35.8-14.9 6.8 0 14.1 1.7 21.8 5 2 2.1 3 4.1 3 6.1v.4c-.8 4.8-3.2 7.2-7.2 7.2h-.4c-7-2.2-12.2-3.4-15.7-3.4h-2.2c-15 0-25.9 7.8-32.9 23.3-1.5 4.1-2.2 8.8-2.2 14.1v45.1c0 3.8-2.4 6.1-7.3 6.9h-.4c-3.9 0-6.3-2.5-7.2-7.6v-88.2c.6-5.9 3.1-8.9 7.6-8.9z"/><path d="m610.4 43.8c4.7 1.2 7.1 3.3 7.1 6.3v3.8c8.3-6.7 17.2-10.1 26.9-10.1 12.9 0 24.2 6 33.9 17.9 4-7.4 12.2-13 24.6-16.8l8.5-1.1c15.6 0 27.9 7.4 37 22.3 3 6.2 4.5 12.2 4.5 17.9v55.6c0 3.2-2.4 5.3-7.1 6.3h-.3c-4.7-.8-7.1-3.2-7.1-7.1v-54c0-12.3-6.5-20.7-19.4-25.4l-5.2-.7h-3.8c-10.3 0-18.1 6-23.6 17.9-.7 2.6-1.1 4.9-1.1 6.7v55.2c-.9 4.9-3.2 7.4-7 7.4h-.4c-4.7-.8-7.1-3-7.1-6.7v-45.9c0-12.7-1.7-20.7-5.2-23.9-5.3-7.2-12.3-10.8-20.9-10.8h-1.1c-11.8 0-20.2 6.3-25 19-.7 3-1.1 7-1.1 12v49.5c0 3.7-2.4 5.9-7.1 6.7h-.3c-3.8 0-6.2-2.5-7.1-7.4v-86.1c.5-5.7 3-8.5 7.4-8.5z"/></g><path d="m784.5 15.3c4.9 1.2 7.3 3.4 7.3 6.5v2.2c0 3.6-2.7 5.8-8 6.5-3.5 0-5.8-2.5-6.9-7.6 1-5 3.5-7.6 7.6-7.6zm0 26c4.9 1.2 7.3 3.4 7.3 6.5v91.2c0 3.8-2.4 6.1-7.3 6.9h-.4c-3.9 0-6.3-2.5-7.2-7.6v-88.2c.6-5.9 3.1-8.8 7.6-8.8z" fill="#ffffff"/><path d="m836.7.8h1.4c4.5.9 6.7 2.9 6.7 6v37.5h15.3l3.4-.4c3.5 0 5.8 2.5 7 7.5 0 3.4-2.1 5.9-6.3 7.4l-5.6-.4h-13.8v54.7c0 9.5 3.1 15.4 9.3 17.6l8.5.7h4.2c3.3 0 5.3 2.4 6.3 7.1v.3c-.8 4.7-3.2 7.1-7.1 7.1h-7.8c-11.8 0-20.6-6.5-26.4-19.4-1-3.2-1.5-6.9-1.5-11.2v-57h-7.4l-6 .4c-4.2-1.5-6.3-4-6.3-7.4.8-4.7 3-7.1 6.7-7.1v-.4l3.8.4h9.2v-35.2c.6-5.5 2.7-8.2 6.4-8.2z" fill="#ffffff"/><path d="m936.3 42.5c13.3 0 25.4 5 36.2 15.1 10.3 10.8 15.4 23 15.4 36.6 0 19.4-9.2 34.6-27.5 45.7-7.9 4-15.6 6-23 6h-3c-13.9 0-26.8-6.5-38.8-19.6-7.3-10.4-11-21.1-11-32.1 0-16.8 7.4-30.9 22.2-42.2 9.5-6.3 19.3-9.5 29.5-9.5zm-36.6 50.6v1.8c0 13.8 6.7 24.5 20 32.1 4.8 2.5 10 3.8 15.4 3.8h2.2c14.3 0 25.2-7.4 32.8-22.2 1.8-4.7 2.6-9.2 2.6-13.6v-1.8c0-11.5-5.3-21.2-15.8-29-6.2-4.3-13.2-6.4-21.1-6.4-15.6 0-27.1 8.2-34.3 24.5-1.1 3.8-1.8 7.5-1.8 10.8z" fill="#ffffff"/><path d="m1024.5 42.5c13.3 0 25.4 5 36.2 15.1 10.3 10.8 15.4 23 15.4 36.6 0 19.4-9.2 34.6-27.5 45.7-7.9 4-15.6 6-23 6h-3c-13.9 0-26.8-6.5-38.8-19.6-7.3-10.4-11-21.1-11-32.1 0-16.8 7.4-30.9 22.2-42.2 9.6-6.3 19.4-9.5 29.5-9.5zm-36.5 50.6v1.8c0 13.8 6.7 24.5 20 32.1 4.8 2.5 10 3.8 15.4 3.8h2.2c14.3 0 25.2-7.4 32.8-22.2 1.8-4.7 2.6-9.2 2.6-13.6v-1.8c0-11.5-5.3-21.2-15.8-29-6.2-4.3-13.2-6.4-21.1-6.4-15.6 0-27.1 8.2-34.3 24.5-1.2 3.8-1.8 7.5-1.8 10.8z" fill="#ffffff"/><g fill="#39a042"><path d="m233.6 139.1c-2.3 0-4.1-1.8-4.1-4.1v-52.9c0-38.1-31-69.2-69.2-69.2s-69.2 31-69.2 69.2v58c0 2.3-1.8 4.1-4.1 4.1s-4.1-1.8-4.1-4.1v-58c0-42.7 34.7-77.4 77.4-77.4s77.4 34.7 77.4 77.4v52.9c0 2.2-1.9 4.1-4.1 4.1z"/><path d="m87 145.2c-2.8 0-5.1-2.3-5.1-5.1v-58c0-43.3 35.2-78.4 78.4-78.4s78.4 35.2 78.4 78.4v52.9c0 2.8-2.3 5.1-5.1 5.1s-5.1-2.3-5.1-5.1v-52.9c0-37.6-30.6-68.2-68.2-68.2s-68.2 30.6-68.2 68.2v58c0 2.8-2.3 5.1-5.1 5.1zm73.3-139.5c-42.1 0-76.4 34.3-76.4 76.4v58c0 1.7 1.4 3.1 3.1 3.1s3.1-1.4 3.1-3.1v-58c0-38.7 31.5-70.2 70.2-70.2s70.2 31.5 70.2 70.2v52.9c0 1.7 1.4 3.1 3.1 3.1s3.1-1.4 3.1-3.1v-52.9c-.1-42.2-34.3-76.4-76.4-76.4z"/><path d="m24.3 140.3c-2.3 0-4.1-1.8-4.1-4.1v-54.1c0-42.7 34.7-77.4 77.4-77.4 2.3 0 4.1 1.8 4.1 4.1s-1.8 4.1-4.1 4.1c-38.1 0-69.2 31-69.2 69.2v54.1c.1 2.3-1.8 4.1-4.1 4.1z"/><path d="m24.3 141.4c-2.8 0-5.1-2.3-5.1-5.1v-54.2c0-43.3 35.2-78.4 78.4-78.4 2.8 0 5.1 2.3 5.1 5.1s-2.3 5.1-5.1 5.1c-37.6 0-68.2 30.6-68.2 68.2v54.1c.1 2.8-2.2 5.2-5.1 5.2z"/><circle cx="160.3" cy="52.2" r="8.9"/><path d="m160.3 62.1c-5.5 0-9.9-4.4-9.9-9.9s4.4-9.9 9.9-9.9 9.9 4.4 9.9 9.9-4.5 9.9-9.9 9.9zm0-17.8c-4.3 0-7.9 3.5-7.9 7.9s3.5 7.9 7.9 7.9 7.9-3.5 7.9-7.9-3.6-7.9-7.9-7.9z"/><path d="m69.4 92h-41c-1.8 0-3.3-1.8-3.3-4.1s1.5-4.1 3.3-4.1h40.9c1.8 0 3.3 1.8 3.3 4.1s-1.4 4.1-3.2 4.1z"/><path d="m69.4 93h-41c-2.3 0-4.1-2.3-4.1-5.1s1.8-5.1 4.1-5.1h40.9c2.3 0 4.1 2.3 4.1 5.1s-1.8 5.1-4 5.1zm-41-8.2c-1.4 0-2.5 1.4-2.5 3.1s1.1 3.1 2.5 3.1h40.9c1.4 0 2.5-1.4 2.5-3.1s-1.1-3.1-2.5-3.1z"/><path d="m5.1 167.1c-1.5 0-2.9-.8-3.7-2.2-1-2-.3-4.5 1.8-5.5 2.7-1.4 58.3-34.5 267.4-22.6 2.3.1 4 2.1 3.9 4.3-.1 2.3-2.1 4-4.3 3.9-206.2-11.8-262.5 21.3-263.2 21.7-.6.3-1.2.4-1.9.4z"/><path d="m5.1 168.1c-1.9 0-3.7-1.1-4.6-2.8-1.3-2.5-.3-5.6 2.2-6.9l.2-.1c10.5-5.7 72.8-33.7 267.7-22.6 1.4.1 2.6.7 3.5 1.7s1.4 2.3 1.3 3.7c-.2 2.8-2.6 5-5.4 4.8-83.3-4.7-154.8-2.6-206.7 6-38 6.4-53.2 14-55.8 15.5-.7.5-1.5.7-2.4.7zm180.5-32.9c-128.2 0-172.9 20.2-181.6 24.9l-.3.2c-1.5.8-2.1 2.7-1.3 4.2.5 1 1.6 1.7 2.8 1.7.5 0 1-.1 1.4-.3 6.2-3.4 65.8-33.1 263.6-21.8 1.7.1 3.2-1.2 3.3-2.9 0-.8-.2-1.6-.8-2.2s-1.3-1-2.1-1c-31.8-2.1-60-2.8-85-2.8z"/><path d="m103.5 12.9h-7.2c-2.1 0-3.8-1.7-3.8-3.8v-.6c0-2.1 1.7-3.8 3.8-3.8h7.2c2.1 0 3.8 1.7 3.8 3.8v.6c.1 2.1-1.6 3.8-3.8 3.8z"/><path d="m103.5 14h-7.1c-2.7 0-4.9-2.2-4.9-4.8v-.7c0-2.7 2.2-4.8 4.9-4.8h7.1c2.7 0 4.9 2.2 4.9 4.8v.7c0 2.6-2.2 4.8-4.9 4.8z"/><path d="m187 142.1v-7.2c-1.5 0-2.8 1.2-2.8 2.6v-39.9h-48v39.9c0-1.4-1.2-2.6-2.8-2.6v7.2c-2.4 0-4.4-2.1-4.4-4.6v-42.5c0-2.5 2-4.6 4.4-4.6h53.6c2.4 0 4.4 2.1 4.4 4.6v42.5c0 2.5-2 4.6-4.4 4.6z"/><path d="m187 143.1h-1v-6.9c-.4.3-.7.7-.7 1.3h-2v-38.9h-46v38.9h-2c0-.5-.3-1-.7-1.3v6.9h-1c-3 0-5.4-2.5-5.4-5.6v-42.5c0-3.1 2.4-5.6 5.4-5.6h53.4c3 0 5.4 2.5 5.4 5.6v42.5c0 3.1-2.4 5.6-5.4 5.6zm0-9.2h1v7c1.3-.5 2.3-1.8 2.3-3.4v-42.5c0-2-1.5-3.6-3.4-3.6h-53.6c-1.8 0-3.4 1.6-3.4 3.6v42.5c0 1.6 1 2.9 2.3 3.4v-7h1c.6 0 1.2.1 1.8.4v-37.7h50v37.7c.8-.2 1.4-.4 2-.4z"/><path d="m29.5 140.6c-5.8 1.5-10.3 3-10.3 3v-10.2h10.3z"/><path d="m123.5 3.6c-12 5.7-17.1 10.3-17.1 10.3h-4.7v-10.3z"/><path d="m66.5 82.7h7.2v10.3h-7.2z"/></g></svg>